# xmcd CD database file
#
# Track frame offsets:
#	150
#	14195
#	28495
#	42432
#	54772
#	68285
#	80917
#	95562
#	108577
#	122377
#	136630
#	147042
#	161062
#	172507
#
# Disc length: 2474 seconds
#
# Revision: 0
# Processed by: cddbd v1.5.2PL0 Copyright (c) Steve Scherf et al.
# Submitted via: CDex 1.70beta2
#
DISCID=b309a80e
DTITLE=Herman Chittison Trio - Herman Chittison Trio with Telma Carpenter
DYEAR=1945
DGENRE=Jazz
TTITLE0=The Song has Ended
TTITLE1=Schubert's Serenade
TTITLE2=How High The Moon
TTITLE3=There's Beauty Everywhere
TTITLE4=I'll Always Be In Love With You
TTITLE5=Poor Butterfly
TTITLE6=I Should Care
TTITLE7=All Of My Life
TTITLE8=I'll Always Be In Love With You
TTITLE9=These Foolish Things
TTITLE10=I Had The Craziest Dream
TTITLE11=Where Or When
TTITLE12=Triste
TTITLE13=To A Wild Rose
EXTD=YEAR: 1945
EXTT0=
EXTT1=
EXTT2=
EXTT3=
EXTT4=
EXTT5=
EXTT6=
EXTT7=
EXTT8=
EXTT9=
EXTT10=
EXTT11=
EXTT12=
EXTT13=
PLAYORDER=
